<svg width="184" height="131" viewBox="0 0 184 131" fill="none" xmlns="http://www.w3.org/2000/svg">
<g clip-path="url(#clip0_3_3879)">
<rect width="183.4" height="131" rx="26.2" fill="white"/>
<path d="M93.498 101.461H89.9019L90.8009 87.0765C90.7501 86.319 90.3865 86.1198 89.0029 86.1775L74.6186 87.9755C74.6186 87.9755 77.3157 84.3794 77.3157 82.5814C77.3157 80.7833 61.1333 69.0961 61.1333 69.0961C61.1333 69.0961 64.7294 68.1971 65.6284 67.298C66.5274 66.399 62.0323 56.5098 62.0323 56.5098C62.0323 56.5098 71.1684 60.1059 71.9215 59.2069C72.6747 58.3078 73.7196 54.7118 73.7196 54.7118C73.7196 54.7118 80.9117 62.8029 82.7098 62.8029C84.5078 62.8029 79.1137 43.0245 79.1137 43.0245C79.1137 43.0245 83.6088 46.6206 85.4068 46.6206C87.2049 46.6206 91.7 34.9333 91.7 34.9333C91.7 34.9333 96.1951 46.6206 97.0941 46.6206C97.9931 46.6206 104.286 43.0245 104.286 43.0245C104.286 43.0245 99.7911 61.9039 100.69 62.8029C101.589 63.702 109.68 54.7118 109.68 54.7118C109.68 54.7118 110.579 58.3078 111.478 59.2069C112.377 60.1059 121.368 56.5098 121.368 56.5098C121.368 56.5098 116.873 66.399 117.772 67.298C118.671 68.1971 122.267 69.0961 122.267 69.0961C122.267 69.0961 106.084 80.7833 106.084 82.5814C106.084 84.3794 107.882 87.9755 107.882 87.9755L94.397 86.1775C93.3131 85.8667 92.9373 86.1025 92.599 87.0765L93.498 101.461Z" fill="#F93939"/>
<rect x="139.733" width="43.6667" height="131" fill="#F93939"/>
<rect width="43.6667" height="131" fill="#F93939"/>
</g>
<defs>
<clipPath id="clip0_3_3879">
<rect width="183.4" height="131" rx="26.2" fill="white"/>
</clipPath>
</defs>
</svg>
