<svg width="184" height="131" viewBox="0 0 184 131" fill="none" xmlns="http://www.w3.org/2000/svg">
<g clip-path="url(#clip0_3_3879)">
<rect width="183.4" height="131" rx="26.2" fill="#1A47B8"/>
<path d="M165.933 0H17.4667C7.82009 0 0 7.82009 0 17.4667V113.533C0 123.18 7.82009 131 17.4667 131H165.933C175.58 131 183.4 123.18 183.4 113.533V17.4667C183.4 7.82009 175.58 0 165.933 0Z" fill="#1A47B8"/>
<path fill-rule="evenodd" clip-rule="evenodd" d="M131 34.9333V43.6667H139.733V34.9333H131ZM148.467 52.4V61.1333H157.2V52.4H148.467ZM113.533 61.1333V69.8667H122.267V61.1333H113.533ZM131 96.0667V104.8H139.733V96.0667H131Z" fill="#F93939"/>
<path d="M78.5999 8.73334H17.4666C12.6433 8.73334 8.73328 12.6434 8.73328 17.4667V61.1333C8.73328 65.9566 12.6433 69.8667 17.4666 69.8667H78.5999C83.4232 69.8667 87.3333 65.9566 87.3333 61.1333V17.4667C87.3333 12.6434 83.4232 8.73334 78.5999 8.73334Z" fill="white"/>
<path fill-rule="evenodd" clip-rule="evenodd" d="M43.6667 43.6667H17.4667V34.9333H43.6667V17.4667H52.4V34.9333H78.6V43.6667H52.4V61.1333H43.6667V43.6667ZM65.5 52.4V61.1333H78.6V52.4H65.5ZM65.5 17.4667V26.2H78.6V17.4667H65.5ZM17.4667 52.4V61.1333H30.5667V52.4H17.4667ZM17.4667 17.4667V26.2H30.5667V17.4667H17.4667Z" fill="#F93939"/>
</g>
<defs>
<clipPath id="clip0_3_3879">
<rect width="183.4" height="131" rx="26.2" fill="white"/>
</clipPath>
</defs>
</svg>
