<svg width="184" height="131" viewBox="0 0 184 131" fill="none" xmlns="http://www.w3.org/2000/svg">
<g clip-path="url(#clip0_3_3879)">
<rect width="183.4" height="131" rx="26.2" fill="white"/>
<path fill-rule="evenodd" clip-rule="evenodd" d="M0 0H78.6V61.1333H0V0Z" fill="#1A47B8"/>
<path fill-rule="evenodd" clip-rule="evenodd" d="M78.6 0V8.73333H183.4V0H78.6ZM78.6 17.4667V26.2H183.4V17.4667H78.6ZM78.6 34.9333V43.6667H183.4V34.9333H78.6ZM78.6 52.4V61.1333H183.4V52.4H78.6ZM0 69.8667V78.6H183.4V69.8667H0ZM0 87.3333V96.0667H183.4V87.3333H0ZM0 104.8V113.533H183.4V104.8H0ZM0 122.267V131H183.4V122.267H0Z" fill="#F93939"/>
<path fill-rule="evenodd" clip-rule="evenodd" d="M8.73328 8.73334V17.4667H17.4666V8.73334H8.73328ZM26.1999 8.73334V17.4667H34.9333V8.73334H26.1999ZM43.6666 8.73334V17.4667H52.3999V8.73334H43.6666ZM61.1333 8.73334V17.4667H69.8666V8.73334H61.1333ZM52.3999 17.4667V26.2H61.1333V17.4667H52.3999ZM34.9333 17.4667V26.2H43.6666V17.4667H34.9333ZM17.4666 17.4667V26.2H26.1999V17.4667H17.4666ZM8.73328 26.2V34.9333H17.4666V26.2H8.73328ZM26.1999 26.2V34.9333H34.9333V26.2H26.1999ZM43.6666 26.2V34.9333H52.3999V26.2H43.6666ZM61.1333 26.2V34.9333H69.8666V26.2H61.1333ZM8.73328 43.6667V52.4H17.4666V43.6667H8.73328ZM26.1999 43.6667V52.4H34.9333V43.6667H26.1999ZM43.6666 43.6667V52.4H52.3999V43.6667H43.6666ZM61.1333 43.6667V52.4H69.8666V43.6667H61.1333ZM52.3999 34.9333V43.6667H61.1333V34.9333H52.3999ZM34.9333 34.9333V43.6667H43.6666V34.9333H34.9333ZM17.4666 34.9333V43.6667H26.1999V34.9333H17.4666Z" fill="white"/>
</g>
<defs>
<clipPath id="clip0_3_3879">
<rect width="183.4" height="131" rx="26.2" fill="white"/>
</clipPath>
</defs>
</svg>
